<?xml version="1.0" encoding="utf-8"?>
<!-- Generator: Adobe Illustrator 23.0.3, SVG Export Plug-In . SVG Version: 6.00 Build 0)  -->
<svg version="1.1" id="Layer_1" xmlns="http://www.w3.org/2000/svg" xmlns:xlink="http://www.w3.org/1999/xlink" x="0px" y="0px"
	 viewBox="0 0 640 480" style="enable-background:new 0 0 640 480;" xml:space="preserve">
<style type="text/css">
	.st0{fill:#FFFFFF;}
</style>
<g>
	<g>
		<path class="st0" d="M4,183.7c2-1.1,3.3-1.8,4.7-2.5c30.5-15.6,61-31.2,91.4-47c3.5-1.8,5.7-1.9,9.4-0.1
			c31.1,15.9,62.4,31.5,93.7,47.2c1.4,0.7,2.7,1.4,5.1,2.6c-5.4,2.1-9.2,5.3-13.7,7.5c-29.1,14.6-58.3,29.1-87.4,43.7
			c-1.9,1-3.2,0.8-5-0.1c-28.5-14.8-57.2-29.4-85.6-44.3C12.5,188.7,8.7,186,4,183.7z M20.6,183.7c5,2.4,8.8,5.1,12.8,7.3
			c22.7,11.9,45.6,23.5,68.3,35.3c2.2,1.1,3.8,1,5.9-0.1c23.3-11.7,46.6-23.3,69.8-35.2c4.2-2.1,8.3-4.7,12.8-7.4
			c-1.2-0.7-1.8-1.1-2.4-1.4c-26.9-13.4-53.8-26.8-80.6-40.3c-2.3-1.2-3.9-0.6-5.9,0.4c-17.5,9-35,18-52.6,26.9
			C39.7,173.9,30.6,178.5,20.6,183.7z"/>
		<path class="st0" d="M5.5,248.2c4.2-5.7,8.3-6.4,13.3-2.1c1,0.9,2.1,1.5,3.2,2c26.4,13.3,52.9,26.6,79.3,40
			c2.4,1.2,4.2,1.3,6.7,0.1c27-13.4,54.2-26.7,81.2-40c2-1,3.8-2.3,5.6-3.6c3.3-2.4,6.5-2,9.7,0.3c1,0.7,2.1,1.4,2.2,2.4
			c0.2,1.4-1.5,1.5-2.4,1.9c-19.5,9.7-39.1,19.4-58.7,29.1c-12.6,6.2-25.2,12.5-37.7,18.7c-1.8,0.9-3.3,1.6-5.5,0.5
			c-31.8-16.2-63.7-32.2-95.6-48.3C6.3,248.9,5.9,248.5,5.5,248.2z"/>
		<path class="st0" d="M206.9,215.9c-0.7,1.4-2.2,1.6-3.5,2.2c-15.7,7.8-31.7,15.1-47.2,23.4c-15.8,8.5-32.1,16.1-47.8,24.6
			c-2.5,1.3-4.5,1.5-7,0.1c-11.8-6.1-24.1-11.5-35.6-18.2C47,237.3,27.2,228.4,8.1,218.3c-0.9-0.5-2.5-0.6-2.5-1.9
			c0.1-1.3,1.7-1.3,2.6-1.9c3.1-2.4,5.9-1.9,9.3-0.1c19.4,10,39.1,19.4,58.4,29.7c8.3,4.5,16.7,8.8,25,13.3c2.6,1.4,4.7,1.5,7.4,0.1
			c28-14.9,56.6-28.5,84.9-42.8C198.5,211.8,202.6,212,206.9,215.9z"/>
		<path class="st0" d="M207.3,278.2c-1.6,0.8-2.8,1.5-4,2.1c-14.1,7-28.5,13.4-42.2,21.1c-17.3,9.7-35.5,17.5-52.9,26.9
			c-2.6,1.4-4.5,1.3-7,0c-14.4-7.4-29.1-14-43.1-22c-17.2-9.8-35.2-17.9-52.6-27.4c4.2-4.5,6.9-5,12-2.4
			c16.2,8.2,32.6,15.9,48.4,24.7c11.6,6.5,23.6,12.1,35.2,18.5c2.5,1.4,4.5,1.3,7.1,0c10.1-5.1,20.6-9.6,30.4-15.2
			c18.1-10.3,37.3-18.4,55.5-28.3C199.4,273.3,202.9,275.1,207.3,278.2z"/>
	</g>
</g>
<path class="st0" d="M304.5,246.8c0,7.5-2.7,13.5-8.1,17.8c-5.4,4.3-13,6.5-22.6,6.5c-8.9,0-16.8-1.7-23.6-5v-16.4
	c5.6,2.5,10.4,4.3,14.3,5.3c3.9,1,7.5,1.5,10.7,1.5c3.9,0,6.8-0.7,8.9-2.2s3.1-3.7,3.1-6.6c0-1.6-0.5-3.1-1.4-4.4s-2.3-2.5-4-3.7
	c-1.8-1.2-5.4-3.1-10.8-5.6c-5.1-2.4-8.9-4.7-11.5-6.9c-2.5-2.2-4.6-4.8-6.1-7.7s-2.3-6.3-2.3-10.3c0-7.4,2.5-13.2,7.5-17.4
	c5-4.2,11.9-6.3,20.7-6.3c4.3,0,8.5,0.5,12.4,1.5s8,2.5,12.3,4.3l-5.7,13.7c-4.4-1.8-8.1-3.1-11-3.8s-5.8-1.1-8.6-1.1
	c-3.3,0-5.9,0.8-7.7,2.3c-1.8,1.6-2.7,3.6-2.7,6.1c0,1.6,0.4,2.9,1.1,4.1c0.7,1.2,1.9,2.3,3.4,3.4c1.6,1.1,5.3,3,11.2,5.8
	c7.8,3.7,13.1,7.5,16,11.2C303.1,236.8,304.5,241.3,304.5,246.8z"/>
<path class="st0" d="M377.1,269.9h-17.4v-37.2c0-9.2-3.4-13.8-10.3-13.8c-4.9,0-8.4,1.7-10.5,5c-2.2,3.3-3.3,8.7-3.3,16.1v30h-17.4
	v-88.7h17.4v18.1c0,1.4-0.1,4.7-0.4,9.9l-0.4,5.1h0.9c3.9-6.2,10-9.3,18.5-9.3c7.5,0,13.2,2,17,6c3.9,4,5.8,9.8,5.8,17.3
	L377.1,269.9L377.1,269.9z"/>
<path class="st0" d="M440.1,269.9l-2.3-8.2h-0.9c-1.9,3-4.5,5.3-7.9,6.9s-7.3,2.4-11.7,2.4c-7.5,0-13.1-2-16.9-6s-5.7-9.8-5.7-17.3
	v-41.6H412v37.2c0,4.6,0.8,8,2.5,10.3c1.6,2.3,4.2,3.4,7.8,3.4c4.9,0,8.4-1.6,10.5-4.9s3.3-8.6,3.3-16.2v-30h17.4v63.7h-13.4
	L440.1,269.9L440.1,269.9z"/>
<path class="st0" d="M489.1,269.9h-17.4v-88.7h17.4V269.9z"/>
<path class="st0" d="M528.6,271.1c-8,0-14.2-2.1-18.6-6.4s-6.6-10.4-6.6-18.2c0-7.9,1.6-15,4.7-21.5s7.4-11.4,12.7-14.8
	c5.4-3.4,11.4-5.1,18.2-5.1c6.7,0,12,1.5,15.7,4.6c3.8,3.1,5.6,7.3,5.6,12.7c0,7.1-3.2,12.6-9.5,16.4c-6.3,3.9-15.4,5.8-27.2,5.8
	h-2.9l-0.1,1.2v1.1c0,3.5,1,6.2,2.9,8.2c2,2,4.8,3,8.4,3c3.3,0,6.3-0.4,9-1.1s6-2,9.8-3.8v12.9C544.2,269.4,536.8,271.1,528.6,271.1
	z M537.9,217.4c-3.3,0-6.5,1.5-9.5,4.6c-3,3-4.9,6.7-5.8,11.1h2.6c5.9,0,10.5-0.9,13.8-2.8c3.3-1.8,4.9-4.3,4.9-7.5
	C543.9,219.2,541.9,217.4,537.9,217.4z"/>
<path class="st0" d="M631.2,269.9h-17.4v-37.2c0-9.2-3.4-13.8-10.3-13.8c-4.9,0-8.4,1.7-10.5,5c-2.2,3.3-3.3,8.7-3.3,16.1v30h-17.4
	v-88.7h17.4v18.1c0,1.4-0.1,4.7-0.4,9.9l-0.4,5.1h0.9c3.9-6.2,10-9.3,18.5-9.3c7.5,0,13.2,2,17,6c3.9,4,5.8,9.8,5.8,17.3v41.5
	L631.2,269.9L631.2,269.9z"/>
</svg>
